<?xml version="1.0" encoding="UTF-8" standalone="no"?>
<svg
   viewBox="0 0 104.43336 104.53434"
   version="1.1"
   id="svg27"
   sodipodi:docname="rust-orange.svg"
   inkscape:version="1.2 (56b05e47e7, 2022-06-09, custom)"
   width="104.43336"
   height="104.53434"
   xmlns:inkscape="http://www.inkscape.org/namespaces/inkscape"
   xmlns:sodipodi="http://sodipodi.sourceforge.net/DTD/sodipodi-0.dtd"
   xmlns="http://www.w3.org/2000/svg"
   xmlns:svg="http://www.w3.org/2000/svg">
  <defs
     id="defs31" />
  <sodipodi:namedview
     id="namedview29"
     pagecolor="#505050"
     bordercolor="#eeeeee"
     borderopacity="1"
     inkscape:showpageshadow="0"
     inkscape:pageopacity="0"
     inkscape:pagecheckerboard="0"
     inkscape:deskcolor="#505050"
     showgrid="false"
     inkscape:zoom="4.4636116"
     inkscape:cx="73.259063"
     inkscape:cy="53.320052"
     inkscape:window-width="1920"
     inkscape:window-height="1011"
     inkscape:window-x="0"
     inkscape:window-y="559"
     inkscape:window-maximized="1"
     inkscape:current-layer="svg27" />
  <path
     d="m 51.366665,0.19787661 c -0.189,0.11 -0.982,1.24799999 -1.763,2.52899999 -1.96,3.217 -1.982,3.219 -4.615,0.448 -1.713,-1.802 -2.127,-2.132 -2.679,-2.128 -0.359,0.002 -0.812,0.124 -1.008,0.271 -0.195,0.147 -0.748,1.317 -1.228,2.6 -1.099,2.939 -1.152,3.034 -1.761,3.151 -0.375,0.071 -1.097,-0.331 -2.828,-1.574 -1.278,-0.919 -2.532,-1.67 -2.786,-1.67 -1.054,0 -1.351,0.576 -1.853,3.593 -0.638,3.8360004 -0.616,3.8230004 -4.074,2.252 -1.396,-0.633 -2.72,-1.152 -2.943,-1.152 -0.223,0 -0.646,0.24 -0.939,0.533 -0.532,0.533 -0.533,0.535 -0.388,3.4680004 l 0.146,2.936 -0.555,0.297 c -0.492,0.263 -0.831,0.231 -3.009,-0.284 -2.843,-0.671 -3.443,-0.653 -4.019,0.122 l -0.421,0.566 0.565,2.421 c 0.31,1.331 0.609,2.613 0.665,2.848 0.055,0.234 -0.04,0.609 -0.212,0.832 -0.284,0.367 -0.586,0.4 -3.217,0.36 -4.4530003,-0.07 -4.7060003,0.312 -2.8660003,4.328 0.5850003,1.275 1.0640003,2.433 1.0640003,2.572 0,0.734 -0.585,1.001 -3.0980003,1.411 -1.406,0.229 -2.628,0.417 -2.716,0.417 -0.088,0 -0.352,0.192 -0.586,0.426 -0.765,0.765 -0.548,1.483 1.187,3.932 2.161,3.05 2.157,3.061 -1.413,4.427 -4.05999998,1.553 -4.14199998,1.936 -1.051,4.868 2.879,2.73 2.882,2.69 -0.377,4.739 -2.46899998,1.551 -2.50699998,1.588 -2.56999998,2.429 -0.076,1.023 -0.058,1.041 2.88999998,2.842 2.915,1.78 2.915,1.834 0.054,4.541 -3.07699998,2.91 -2.98199998,3.335 1.081,4.868 3.55,1.339 3.555,1.355 1.39,4.405 -1.227,1.729 -1.618,2.449 -1.618,2.983 0,0.999 0.52,1.254 3.627,1.776 2.6170003,0.441 3.2000003,0.7 3.2000003,1.422 0,0.148 -0.48,1.316 -1.0670003,2.594 -1.826,3.977 -1.618,4.308 2.7040003,4.308 4.025,0 3.918,-0.123 3.051,3.507 -0.654,2.736 -0.664,3.26 -0.072,3.851 0.453,0.454 1.307,0.403 3.978,-0.236 2.04,-0.487 2.398,-0.521 2.871,-0.268 l 0.54,0.289 -0.146,2.935 c -0.145,2.934 -0.144,2.936 0.388,3.469 0.293,0.293 0.722,0.533 0.952,0.533 0.23,0 1.554,-0.516 2.943,-1.147 3.447,-1.565 3.425,-1.578 4.061,2.246 0.504,3.031003 0.798,3.594003 1.874,3.594003 0.267,0 1.494,-0.720003 2.728,-1.600003 2.167,-1.546 2.729,-1.788 3.306,-1.421 0.149,0.094 0.727,1.364 1.284,2.822003 0.819,2.144 1.119,2.702 1.575,2.92 0.868,0.416 1.405,0.082 3.445,-2.14 2.463,-2.683003 2.564,-2.670003 4.575,0.589 2.221,3.598 2.796,3.59 5.073,-0.073 1.962,-3.156003 1.939,-3.154003 4.591,-0.384 1.761,1.838 2.136,2.131 2.73,2.131 0.379,0 0.832,-0.142 1.005,-0.316 0.174,-0.174 0.75,-1.459 1.28,-2.855 0.53,-1.397003 1.079,-2.613003 1.221,-2.703003 0.561,-0.357 1.142,-0.106 3.306,1.43 1.274,0.905 2.473,1.600003 2.758,1.600003 1.058,0 1.44,-0.751003 1.88,-3.703003 0.376,-2.517 0.452,-2.758 0.947,-3.009 0.487,-0.247 0.779,-0.164 3.063,0.873 1.389,0.63 2.713,1.146 2.943,1.146 0.23,0 0.666,-0.247 0.967,-0.549 l 0.549,-0.548 -0.151,-2.815 c -0.144,-2.688 -0.131,-2.832 0.298,-3.22 0.441,-0.399 0.486,-0.397 2.952,0.166 2.986,0.682 3.543,0.7 4.104,0.139 0.548,-0.548 0.542,-0.668 -0.208,-3.831 -0.841,-3.548 -0.954,-3.422 3.088,-3.422 2.755,0 3.062,-0.039 3.413,-0.426 0.586,-0.648 0.447,-1.39 -0.732,-3.903 -0.595,-1.266 -1.078,-2.418 -1.074,-2.56 0.02,-0.747 0.607,-1.002 3.32,-1.443 1.66,-0.269 2.902,-0.581 3.126995,-0.784 0.754,-0.681 0.477,-1.567 -1.243995,-3.98 -2.157,-3.024 -2.148,-3.053 1.305995,-4.326 4.136,-1.524 4.254,-2.032 1.159,-4.973 -2.866995,-2.724 -2.867995,-2.709 0.272,-4.637 3.796,-2.33 3.802,-2.855 0.067,-5.173 -3.211995,-1.993 -3.209995,-1.965 -0.331,-4.699 3.088,-2.934 3.004,-3.318 -1.057,-4.871 -3.583995,-1.371 -3.594995,-1.405 -1.416995,-4.394 1.296995,-1.78 1.617995,-2.371 1.617995,-2.981 0,-1.066 -0.477995,-1.305 -3.621995,-1.813 -2.627,-0.424 -3.205,-0.682 -3.205,-1.429 0,-0.142 0.48,-1.285 1.067,-2.542 1.149,-2.461 1.31,-3.446 0.66,-4.035 -0.349,-0.316 -0.817,-0.361 -3.321,-0.32 -2.62,0.044 -2.955,0.007 -3.318,-0.358 -0.397,-0.399 -0.393,-0.455 0.227,-3.042 0.76,-3.17 0.763,-3.247 0.138,-3.834 -0.634,-0.596 -1.03,-0.586 -3.941,0.099 -2.121,0.5 -2.472,0.533 -2.954,0.275 l -0.547,-0.293 0.151,-2.926 0.152,-2.9250004 -0.547,-0.547 c -0.301,-0.301 -0.728,-0.547 -0.95,-0.547 -0.221,0 -1.538,0.523 -2.926,1.161 -2.318,1.0670004 -2.567,1.1380004 -3.068,0.8760004 -0.5,-0.262 -0.583,-0.52 -1.01,-3.1270004 -0.493,-3.016 -0.798,-3.603 -1.869,-3.603 -0.254,0 -1.513,0.755 -2.798,1.678 -2.11,1.516 -2.393,1.659 -2.919,1.476 -0.435,-0.152 -0.688,-0.483 -0.997,-1.306 -0.229,-0.606 -0.667,-1.774 -0.975,-2.595 -0.622,-1.656 -0.969,-2.027 -1.901,-2.027 -0.52,0 -0.991,0.374 -2.679,2.127 -2.653,2.756 -2.663,2.755 -4.614,-0.445 -0.78,-1.279 -1.595,-2.42099999 -1.812,-2.53699999 -0.488,-0.262 -1.062,-0.261 -1.511,0.002 m 2.418,9.63499999 c 2.311,1.6450004 1.082,5.5120004 -1.752,5.5120004 -2.75,0 -4.135,-3.313 -2.171,-5.194 1.108,-1.0620004 2.697,-1.1910004 3.923,-0.3180004 m -2.906,10.2140004 c 1.515,0.576 2.137,0.23 5.596,-3.104 l 2.599,-2.506 1.1,0.146 c 3.45,0.458 10.312,3.472 14.255,6.261 3.623,2.564 8.438,7.786 10.49,11.377 l 0.439,0.769 -1.944,4.38 c -1.07,2.409 -1.945,4.633 -1.945,4.944 0,0.717 0.47,1.851 0.923,2.226 0.191,0.159 2.006,1.033 4.033,1.942 l 3.684,1.654 0.145,0.937 c 0.187,1.221 0.212,4.22 0.042,5.072 l -0.133,0.666 h -2.103 c -2.439,0 -2.251,-0.218 -2.383,2.774 -0.096,2.169 -0.62,3.368 -1.812,4.144 -1.942,1.267 -5.149,1.037 -6.509,-0.466 -0.209,-0.231 -0.615,-1.392 -0.903,-2.581 -0.841,-3.473 -1.971,-5.423 -4.241,-7.32 -0.717,-0.599 -1.303,-1.158 -1.303,-1.243 0,-0.084 0.788,-0.748 1.752,-1.473 3.51,-2.646 5.528,-5.726 5.75,-8.777 0.423,-5.819 -4.213,-11.243 -11.109,-13.001 -1.635,-0.417 -2.333,-0.43 -22.56,-0.43 -11.48,0 -20.873,-0.075 -20.873,-0.166 0,-0.215 2.551,-2.691 4.054,-3.933 4.127,-3.412 9.488,-6.097 15.04,-7.531 l 1.92,-0.497 2.728,2.766 c 1.501,1.521 2.972,2.857 3.268,2.97 m -34.351,17.797 c 1.257,0.823 1.772,2.891 1.03,4.134 -1.148,1.924 -4.056,2.005 -5.205,0.145 -1.671,-2.702 1.547,-6.001 4.175,-4.279 m 74.05,0.105 c 3.288,2.005 0.74,6.937 -2.78,5.38 -2.35,-1.04 -2.425,-4.252 -0.127,-5.424 0.959,-0.489 2.061,-0.472 2.907,0.044 m -64.362,12.276 v 12.266 h -10.844 l -0.43,-1.866 c -0.846,-3.675 -1.202,-7.477 -0.989,-10.591 l 0.149,-2.188 3.728,-1.672 c 2.339,-1.048 3.843,-1.847 4.037,-2.144 0.848,-1.293 0.767,-2.217 -0.423,-4.845 l -0.556,-1.227 h 5.328 v 12.267 m 31.22,-11.733 c 2.322,0.604 3.549,1.833 3.552,3.556 0.002,1.265 -0.625,2.059 -2.18,2.761 -1.101,0.498 -1.276,0.51 -8.219,0.578 l -7.093,0.068 v -7.284 h 6.355 c 4.964,0 6.625,0.07 7.585,0.321 m -2.396,17.602 c 1.151,0.32 2.512,1.32 3.21,2.359 0.733,1.092 1.162,2.512 2.178,7.216 0.858,3.976 1.41,5.276 2.956,6.968 1.915,2.095 1.471,2.014 11.037,2.014 4.581,0 8.328,0.073 8.328,0.163 0,0.161 -3.155,3.891 -3.291,3.891 -0.039,0 -1.687,-0.345 -3.662,-0.767 -5.577,-1.191 -5.778,-1.051 -7.058,4.926 l -0.823,3.84 -0.743,0.366 c -1.24,0.612 -5.27,1.872 -7.359,2.302 -3.452,0.71 -7.209,0.95 -10.511,0.671 -5.629,-0.477 -13.083,-2.661 -13.374,-3.92 -0.062,-0.267 -0.437,-1.995 -0.832,-3.841 -0.396,-1.846 -0.877,-3.597 -1.069,-3.891 -0.923,-1.408 -1.894,-1.495 -6.164,-0.55 -1.617,0.358 -3.028,0.65 -3.136,0.65 -0.203,0 -3.204,-3.47 -3.204,-3.704 0,-0.073 7.128,-0.158 15.84,-0.188 l 15.84,-0.054 0.057,-5.627 c 0.04,-3.973 -0.015,-5.714 -0.187,-5.92 -0.192,-0.232 -1.214,-0.293 -4.91,-0.293 h -4.667 v -6.827 l 5.387,0.001 c 2.962,10e-4 5.733,0.098 6.157,0.215 m -24.408,25.589 c 2.519,1.535 1.311,5.557 -1.668,5.554 -3.055,-0.002 -4.187,-3.987 -1.584,-5.575 0.861,-0.525 2.374,-0.515 3.252,0.021 m 46.126,0.168 c 1.235,0.905 1.646,2.788 0.881,4.042 -2.009,3.295 -7.033,0.676 -5.355,-2.791 0.825,-1.703 3.018,-2.317 4.474,-1.251"
     fill-rule="evenodd"
     id="path25"
     style="fill:#c87137" />
</svg>
